# Blender 4.1.1
# www.blender.org
mtllib player.mtl
o Cube.001
v 0.400000 0.732888 -0.400000
v 0.400000 -0.067112 -0.400000
v 0.400000 0.732888 0.400000
v 0.400000 -0.067112 0.400000
v -0.400000 0.732888 -0.400000
v -0.400000 -0.067112 -0.400000
v -0.400000 0.732888 0.400000
v -0.400000 -0.067112 0.400000
v 0.400000 0.332888 -0.400000
v -0.400000 0.332888 0.400000
v 0.400000 0.332888 0.400000
v -0.400000 0.332888 -0.400000
v -0.400000 -0.067112 0.000000
v 0.400000 0.732888 -0.000000
v -0.400000 0.732888 -0.000000
v 0.400000 -0.067112 0.000000
v -0.600000 0.132888 0.200000
v 0.000000 -0.067112 -0.400000
v 0.000000 0.732888 0.400000
v 0.000000 -0.067112 0.400000
v 0.000000 0.732888 -0.400000
v 0.000000 0.332888 -0.464995
v 0.000000 0.332888 0.531757
v 0.000000 -0.257929 0.000000
v 0.000000 0.900833 -0.000000
v -0.400000 -0.067112 0.200000
v 0.400000 0.732888 0.200000
v 0.400000 0.332888 0.200000
v -0.400000 0.732888 0.200000
v 0.400000 -0.067112 0.200000
v -0.400000 0.332888 0.200000
v 0.000000 0.900833 0.200000
v -0.400000 0.732888 -0.200000
v 0.400000 -0.067112 -0.200000
v -0.400000 0.332888 0.000898
v -0.400000 -0.067112 -0.200000
v 0.400000 0.732888 -0.200000
v 0.400000 0.332888 0.003190
v 0.000000 0.900833 -0.200000
v 0.200000 -0.067112 0.400000
v 0.200000 0.732888 -0.400000
v 0.200000 0.332888 -0.464995
v 0.200000 0.900833 -0.000000
v 0.200000 -0.067112 -0.400000
v 0.200000 0.732888 0.400000
v 0.200000 0.332888 0.531757
v 0.200000 0.900833 0.200000
v 0.200000 0.900833 -0.200000
v -0.200000 -0.067112 -0.400000
v -0.200000 0.732888 0.400000
v -0.200000 0.332888 0.531757
v -0.200000 -0.067112 0.400000
v -0.200000 0.732888 -0.400000
v -0.200000 0.332888 -0.464995
v -0.200000 0.900833 -0.000000
v -0.200000 0.900833 0.200000
v -0.200000 0.900833 -0.200000
v -0.400000 0.532888 0.400000
v 0.400000 0.532888 -0.400000
v 0.400000 0.532888 0.400000
v -0.400000 0.532888 -0.400000
v 0.400000 0.532888 -0.000000
v -0.400000 0.532888 -0.000000
v 0.000000 0.532888 -0.464995
v 0.000000 0.532888 0.531757
v -0.400000 0.532888 0.200000
v 0.400000 0.532888 0.200000
v 0.400000 0.532888 -0.000000
v -0.400000 0.532888 -0.000000
v 0.200000 0.532888 0.531757
v 0.200000 0.532888 -0.464995
v -0.200000 0.532888 -0.464995
v -0.200000 0.532888 0.531757
v 0.400000 0.132888 -0.400000
v 0.400000 0.132888 0.400000
v -0.400000 0.132888 -0.400000
v -0.400000 0.132888 0.400000
v -0.400000 0.132888 0.000000
v 0.400000 0.132888 0.000000
v 0.000000 0.132888 0.531757
v 0.000000 0.132888 -0.464995
v -0.400000 0.132888 0.200000
v 0.400000 0.132888 0.200000
v 0.400000 0.132888 0.002201
v -0.400000 0.132888 -0.000898
v 0.200000 0.132888 0.531757
v 0.200000 0.132888 -0.464995
v -0.200000 0.132888 -0.464995
v -0.200000 0.132888 0.531757
v 0.800000 0.332888 -0.200000
v 0.800000 0.332888 0.000000
v 0.800000 0.532888 -0.000000
v 0.800000 0.332888 0.200000
v 0.800000 0.532888 0.200000
v 0.800000 0.532888 -0.200000
v 0.800000 0.132888 0.000000
v 0.800000 0.132888 0.200000
v 0.800000 0.132888 -0.200000
v -0.800000 0.332888 0.200000
v -0.800000 0.332888 0.000000
v -0.800000 0.532888 -0.000000
v -0.800000 0.532888 0.200000
v -0.800000 0.332888 -0.200000
v -0.800000 0.532888 -0.200000
v -0.800000 0.132888 0.000000
v -0.800000 0.132888 0.200000
v -0.800000 0.132888 -0.200000
v -0.600000 0.332888 0.200000
v -0.600000 0.532888 -0.000000
v -0.600000 0.532888 -0.000000
v -0.600000 0.532888 0.200000
v -0.600000 0.132888 -0.000898
v -0.600000 0.332888 0.000898
v -0.600000 0.132888 0.000000
v 0.600000 0.132888 0.002201
v 0.600000 0.332888 0.003190
v 0.600000 0.532888 -0.000000
v 0.600000 0.532888 0.200000
v 0.600000 0.532888 -0.000000
v 0.600000 0.132888 0.000000
v 0.600000 0.132888 0.200000
v 0.600000 0.332888 0.200000
vn -0.5409 0.6441 0.5409
vn -0.4820 0.4820 0.7317
vn -1.0000 -0.0000 -0.0000
vn 0.2900 -0.9120 0.2900
vn 1.0000 -0.0000 -0.0000
vn 0.2953 0.2953 -0.9086
vn 0.3091 -0.0000 -0.9510
vn -0.5501 -0.0000 0.8351
vn 0.7087 0.0063 -0.7055
vn -0.0000 1.0000 -0.0000
vn -0.0001 1.0000 -0.0000
vn -0.0000 -0.0000 -1.0000
vn 0.4306 -0.9026 -0.0000
vn -0.6431 0.7658 -0.0000
vn -0.0000 -0.0000 1.0000
vn -0.0000 0.3091 -0.9510
vn -0.0000 -0.9026 0.4306
vn -0.0000 0.5501 0.8351
vn -0.0000 0.7658 0.6431
vn -0.0000 -0.9026 -0.4306
vn -0.0000 0.7658 -0.6431
vn -0.5409 0.6441 -0.5409
vn 0.2900 -0.9120 -0.2900
vn 0.6431 0.7658 -0.0000
vn 0.4820 0.4820 0.7317
vn 0.5501 -0.0000 0.8351
vn -0.0000 -1.0000 -0.0000
vn -0.4306 -0.9026 -0.0000
vn -0.2953 0.2953 -0.9086
vn -0.3091 -0.0000 -0.9510
vn -0.7110 -0.0000 -0.7032
vn -0.0000 -0.5501 0.8351
vn -0.0000 -0.3091 -0.9510
vn -0.7126 -0.0112 -0.7014
vn 0.7071 -0.0000 -0.7071
vn -0.0000 -0.0045 -1.0000
vn -0.0000 0.0090 -1.0000
vn -0.0000 -0.0159 -0.9999
vn -0.0000 0.0049 -1.0000
vn 0.7055 -0.0000 -0.7087
vn 0.5409 0.6441 -0.5409
vn 0.5409 0.6441 0.5409
vn -0.2900 -0.9120 -0.2900
vn -0.2900 -0.9120 0.2900
vn -0.7127 0.0035 -0.7015
vn -0.2953 -0.2953 -0.9086
vn 0.4820 -0.4820 0.7317
vn -0.4820 -0.4820 0.7317
vn 0.2953 -0.2953 -0.9086
vn -0.7071 -0.0000 -0.7071
vn 0.7087 -0.0032 -0.7055
vt 0.623573 0.685359
vt 0.561786 0.747146
vt 0.561786 0.685359
vt 0.376427 0.932505
vt 0.314641 0.994292
vt 0.314641 0.932505
vt 0.376427 0.191068
vt 0.314641 0.252854
vt 0.314641 0.191068
vt 0.129281 0.685359
vt 0.067495 0.747146
vt 0.067495 0.685359
vt 0.376427 0.685359
vt 0.314641 0.747146
vt 0.314641 0.685359
vt 0.376427 0.438214
vt 0.314641 0.500000
vt 0.314641 0.438214
vt 0.252854 0.438214
vt 0.191068 0.500000
vt 0.191068 0.438214
vt 0.252854 0.685359
vt 0.191068 0.747146
vt 0.191068 0.685359
vt 0.191068 0.191068
vt 0.252854 0.252854
vt 0.191068 0.252854
vt 0.252854 0.932505
vt 0.191068 0.994292
vt 0.191068 0.932505
vt 0.252854 0.191068
vt 0.191068 0.561786
vt 0.191068 0.623573
vt 0.314641 0.561786
vt 0.376427 0.623573
vt 0.314641 0.623573
vt 0.067495 0.561786
vt 0.129281 0.561786
vt 0.129281 0.623573
vt 0.376427 0.067495
vt 0.314641 0.129281
vt 0.314641 0.067495
vt 0.623573 0.561786
vt 0.561786 0.623573
vt 0.561786 0.561786
vt 0.500000 0.561786
vt 0.438213 0.623573
vt 0.438213 0.561786
vt 0.252854 0.808932
vt 0.191068 0.870719
vt 0.191068 0.808932
vt 0.252854 0.314641
vt 0.191068 0.376427
vt 0.191068 0.314641
vt 0.376427 0.314641
vt 0.314641 0.376427
vt 0.314641 0.314641
vt 0.634990 0.275687
vt 0.678679 0.319377
vt 0.634990 0.363067
vt 0.376427 0.808932
vt 0.314641 0.870719
vt 0.314641 0.808932
vt 0.500000 0.685359
vt 0.438213 0.747146
vt 0.438213 0.685359
vt 0.500000 0.623573
vt 0.376427 0.005708
vt 0.314641 0.005708
vt 0.252854 0.005708
vt 0.191068 0.067495
vt 0.191068 0.005708
vt 0.067495 0.623573
vt 0.623573 0.623573
vt 0.634990 0.202484
vt 0.634990 0.140698
vt 0.696776 0.202484
vt 0.500000 0.500000
vt 0.438213 0.500000
vt 0.561786 0.500000
vt 0.067495 0.500000
vt 0.376427 0.561786
vt 0.252854 0.500000
vt 0.252854 0.067495
vt 0.376427 0.129281
vt 0.634990 0.509473
vt 0.634990 0.447686
vt 0.696776 0.509473
vt 0.376427 0.500000
vt 0.376427 0.747146
vt 0.252854 0.747146
vt 0.252854 0.376427
vt 0.376427 0.376427
vt 0.005708 0.747146
vt 0.696776 0.264271
vt 0.634990 0.264271
vt 0.634990 0.005708
vt 0.696776 0.067495
vt 0.634990 0.067495
vt 0.696776 0.129281
vt 0.634990 0.129281
vt 0.634990 0.374483
vt 0.696776 0.436270
vt 0.634990 0.436270
vt 0.252854 0.870719
vt 0.376427 0.870719
vt 0.500000 0.747146
vt 0.252854 0.561786
vt 0.252854 0.994292
vt 0.129281 0.932505
vt 0.129281 0.870719
vt 0.129281 0.314641
vt 0.129281 0.252854
vt 0.129281 0.438214
vt 0.129281 0.376427
vt 0.129281 0.808932
vt 0.129281 0.747146
vt 0.129281 0.129281
vt 0.129281 0.191068
vt 0.129281 0.500000
vt 0.129281 0.067495
vt 0.129281 0.005708
vt 0.129281 0.994292
vt 0.252854 0.623573
vt 0.191068 0.129281
vt 0.252854 0.129281
vt 0.623573 0.747146
vt 0.376427 0.994292
vt 0.376427 0.252854
vt 0.623573 0.500000
s 0
usemtl Material.003
f 29/1/1 50/2/1 56/3/1
f 50/4/2 58/5/2 73/6/2
f 33/7/3 61/8/3 69/9/3
f 30/10/4 40/11/4 24/12/4
f 27/13/5 60/14/5 67/15/5
f 41/16/6 59/17/6 71/18/6
f 42/19/7 74/20/7 87/21/7
f 28/22/5 75/23/5 83/24/5
f 85/25/3 12/26/3 76/27/3
f 51/28/8 77/29/8 89/30/8
f 112/25/9 103/31/9 113/31/9
f 115/32/10 96/33/10 120/33/10
f 68/34/10 14/35/11 62/36/12
f 24/37/13 34/38/13 16/39/13
f 29/40/3 63/41/3 66/42/3
f 33/43/14 55/44/14 57/45/14
f 39/46/10 43/47/10 48/48/10
f 46/49/15 80/50/15 86/51/15
f 54/52/12 81/53/12 88/54/12
f 53/55/16 64/56/16 72/57/16
f 24/58/17 20/59/17 52/60/17
f 45/61/18 65/62/18 70/63/18
f 32/64/19 45/65/19 47/66/19
f 25/67/10 47/66/10 43/47/10
f 7/68/3 66/42/3 58/69/3
f 10/70/3 82/71/3 77/72/3
f 119/34/10 92/36/10 95/34/10
f 14/35/5 67/15/5 62/36/5
f 24/73/13 16/39/13 30/10/13
f 15/74/14 56/3/14 55/44/14
f 49/75/20 18/76/20 24/77/20
f 21/78/21 48/48/21 41/79/21
f 53/80/22 33/43/22 57/45/22
f 44/81/23 34/38/23 24/37/23
f 59/17/5 37/82/5 68/34/5
f 9/83/5 84/32/5 74/20/5
f 111/42/15 99/84/15 108/84/15
f 15/85/11 69/9/12 63/41/10
f 18/86/20 44/87/20 24/88/20
f 41/79/10 37/82/10 1/89/10
f 43/47/24 27/13/24 14/35/24
f 27/13/10 45/65/10 3/90/10
f 60/14/25 45/61/25 70/63/25
f 11/91/26 86/51/26 75/23/26
f 48/48/24 14/35/24 37/82/24
f 22/92/12 87/21/12 81/53/12
f 21/93/16 71/18/16 64/56/16
f 24/12/17 40/11/17 20/94/17
f 53/80/21 39/46/21 21/78/21
f 49/75/27 36/95/27 6/96/27
f 55/44/10 32/64/10 25/67/10
f 13/97/28 24/98/28 26/99/28
f 26/99/27 52/100/27 8/101/27
f 61/8/29 53/55/29 72/57/29
f 12/26/30 88/54/30 76/27/30
f 36/102/28 24/103/28 13/104/28
f 57/45/10 25/67/10 39/46/10
f 23/105/15 89/30/15 80/50/15
f 19/106/18 73/6/18 65/62/18
f 56/3/19 19/107/19 32/64/19
f 65/62/15 51/28/15 23/105/15
f 61/8/30 54/52/30 12/26/30
f 64/56/12 42/19/12 22/92/12
f 60/14/26 46/49/26 11/91/26
f 108/84/15 106/71/15 17/71/15
f 9/83/5 68/34/5 38/108/5
f 115/32/31 90/108/31 98/32/31
f 58/69/3 31/84/3 10/70/3
f 70/63/15 23/105/15 46/49/15
f 72/57/12 22/92/12 54/52/12
f 110/9/10 101/41/10 109/41/12
f 118/15/10 92/36/10 117/36/10
f 71/18/7 9/83/7 42/19/7
f 67/15/5 11/91/5 28/22/5
f 69/9/3 12/26/3 35/31/3
f 73/6/8 10/109/8 51/28/8
f 80/50/32 52/110/32 20/111/32
f 76/27/12 49/112/12 6/113/12
f 81/53/33 44/114/33 18/115/33
f 75/23/15 40/116/15 4/117/15
f 13/118/3 85/25/3 36/119/3
f 74/20/5 34/38/5 2/120/5
f 79/33/5 30/10/5 16/39/5
f 77/72/3 26/121/3 8/122/3
f 88/54/33 18/115/33 49/112/33
f 86/51/32 20/111/32 40/116/32
f 84/32/5 16/39/5 34/38/5
f 82/71/3 13/118/3 26/121/3
f 52/110/15 77/29/15 8/123/15
f 36/119/3 76/27/3 6/113/3
f 83/24/5 4/117/5 30/10/5
f 44/114/12 74/20/12 2/120/12
f 90/108/5 96/33/5 98/32/5
f 91/124/5 97/24/5 96/33/5
f 92/36/5 93/22/5 91/124/5
f 95/34/5 91/124/5 90/108/5
f 119/34/34 90/108/34 116/108/34
f 120/33/27 97/24/27 121/24/27
f 122/22/15 94/15/15 118/15/15
f 121/24/15 93/22/15 122/22/15
f 99/84/3 105/125/3 106/71/3
f 100/126/3 107/25/3 105/125/3
f 101/41/3 103/31/3 100/126/3
f 102/42/3 100/126/3 99/84/3
f 112/25/27 105/125/27 107/25/27
f 110/9/35 103/31/35 104/9/35
f 17/71/27 105/125/27 114/125/27
f 109/41/10 102/42/10 111/42/10
f 63/41/10 111/42/10 66/42/10
f 82/71/27 114/125/27 78/125/27
f 35/31/36 110/9/36 69/9/36
f 78/125/27 112/25/27 85/25/27
f 69/9/10 109/41/10 63/41/12
f 31/84/15 17/71/15 82/71/15
f 66/42/15 108/84/15 31/84/15
f 85/25/37 113/31/37 35/31/37
f 83/24/15 122/22/15 28/22/15
f 28/22/15 118/15/15 67/15/15
f 79/33/27 121/24/27 83/24/27
f 68/34/38 116/108/38 38/108/38
f 67/15/10 117/36/10 62/36/10
f 38/108/39 115/32/39 84/32/39
f 62/36/10 119/34/10 68/34/12
f 84/32/10 120/33/10 79/33/10
f 29/1/10 7/127/10 50/2/10
f 50/4/15 7/128/15 58/5/15
f 33/7/3 5/129/3 61/8/3
f 30/10/27 4/117/27 40/11/27
f 27/13/5 3/90/5 60/14/5
f 41/16/12 1/89/12 59/17/12
f 42/19/7 9/83/7 74/20/7
f 28/22/5 11/91/5 75/23/5
f 85/25/3 35/31/3 12/26/3
f 51/28/8 10/109/8 77/29/8
f 112/25/40 107/25/40 103/31/40
f 115/32/27 98/32/27 96/33/27
f 68/34/5 37/82/5 14/35/5
f 29/40/3 15/85/3 63/41/3
f 33/43/14 15/74/14 55/44/14
f 39/46/10 25/67/10 43/47/10
f 46/49/15 23/105/15 80/50/15
f 54/52/12 22/92/12 81/53/12
f 53/55/16 21/93/16 64/56/16
f 45/61/18 19/106/18 65/62/18
f 32/64/19 19/107/19 45/65/19
f 25/67/10 32/64/10 47/66/10
f 7/68/3 29/40/3 66/42/3
f 10/70/3 31/84/3 82/71/3
f 119/34/12 117/36/10 92/36/10
f 14/35/5 27/13/5 67/15/5
f 15/74/14 29/1/14 56/3/14
f 21/78/21 39/46/21 48/48/21
f 53/80/10 5/130/10 33/43/10
f 44/81/27 2/120/27 34/38/27
f 59/17/5 1/89/5 37/82/5
f 9/83/5 38/108/5 84/32/5
f 111/42/15 102/42/15 99/84/15
f 15/85/3 33/7/3 69/9/3
f 41/79/41 48/48/41 37/82/41
f 43/47/24 47/66/24 27/13/24
f 27/13/42 47/66/42 45/65/42
f 60/14/15 3/90/15 45/61/15
f 11/91/26 46/49/26 86/51/26
f 48/48/24 43/47/24 14/35/24
f 22/92/12 42/19/12 87/21/12
f 21/93/16 41/16/16 71/18/16
f 53/80/21 57/45/21 39/46/21
f 49/75/43 24/77/43 36/95/43
f 55/44/10 56/3/10 32/64/10
f 26/99/44 24/98/44 52/100/44
f 61/8/12 5/129/12 53/55/12
f 12/26/30 54/52/30 88/54/30
f 57/45/10 55/44/10 25/67/10
f 23/105/15 51/28/15 89/30/15
f 19/106/18 50/4/18 73/6/18
f 56/3/19 50/2/19 19/107/19
f 65/62/15 73/6/15 51/28/15
f 61/8/30 72/57/30 54/52/30
f 64/56/12 71/18/12 42/19/12
f 60/14/26 70/63/26 46/49/26
f 108/84/15 99/84/15 106/71/15
f 9/83/5 59/17/5 68/34/5
f 115/32/45 116/108/45 90/108/45
f 58/69/3 66/42/3 31/84/3
f 70/63/15 65/62/15 23/105/15
f 72/57/12 64/56/12 22/92/12
f 110/9/10 104/9/10 101/41/10
f 118/15/10 94/15/10 92/36/10
f 71/18/7 59/17/7 9/83/7
f 67/15/5 60/14/5 11/91/5
f 69/9/3 61/8/3 12/26/3
f 73/6/8 58/5/8 10/109/8
f 80/50/32 89/30/32 52/110/32
f 76/27/46 88/54/46 49/112/46
f 81/53/33 87/21/33 44/114/33
f 75/23/47 86/51/47 40/116/47
f 13/118/3 78/125/3 85/25/3
f 74/20/5 84/32/5 34/38/5
f 79/33/5 83/24/5 30/10/5
f 77/72/3 82/71/3 26/121/3
f 88/54/33 81/53/33 18/115/33
f 86/51/32 80/50/32 20/111/32
f 84/32/3 79/33/3 16/39/3
f 82/71/3 78/125/3 13/118/3
f 52/110/48 89/30/48 77/29/48
f 36/119/3 85/25/3 76/27/3
f 83/24/5 75/23/5 4/117/5
f 44/114/49 87/21/49 74/20/49
f 90/108/5 91/124/5 96/33/5
f 91/124/5 93/22/5 97/24/5
f 92/36/5 94/15/5 93/22/5
f 95/34/5 92/36/5 91/124/5
f 119/34/50 95/34/50 90/108/50
f 120/33/27 96/33/27 97/24/27
f 122/22/15 93/22/15 94/15/15
f 121/24/15 97/24/15 93/22/15
f 99/84/3 100/126/3 105/125/3
f 100/126/3 103/31/3 107/25/3
f 101/41/3 104/9/3 103/31/3
f 102/42/3 101/41/3 100/126/3
f 112/25/27 114/125/27 105/125/27
f 110/9/51 113/31/51 103/31/51
f 17/71/27 106/71/27 105/125/27
f 109/41/10 101/41/10 102/42/10
f 63/41/10 109/41/10 111/42/10
f 82/71/27 17/71/27 114/125/27
f 35/31/36 113/31/36 110/9/36
f 78/125/27 114/125/27 112/25/27
f 69/9/10 110/9/12 109/41/10
f 31/84/15 108/84/15 17/71/15
f 66/42/15 111/42/15 108/84/15
f 85/25/37 112/25/37 113/31/37
f 83/24/15 121/24/15 122/22/15
f 28/22/15 122/22/15 118/15/15
f 79/33/27 120/33/27 121/24/27
f 68/34/38 119/34/38 116/108/38
f 67/15/10 118/15/10 117/36/10
f 38/108/39 116/108/39 115/32/39
f 62/36/10 117/36/12 119/34/10
f 84/32/10 115/32/10 120/33/10
