# Blender 4.1.1
# www.blender.org
mtllib Goal.mtl
o 円柱
v 0.120000 -0.496585 -0.000000
v 0.120000 0.703415 -0.000000
v 0.117694 -0.496585 0.023411
v 0.117694 0.703415 0.023411
v 0.110866 -0.496585 0.045922
v 0.110866 0.703415 0.045922
v 0.099776 -0.496585 0.066668
v 0.099776 0.703415 0.066668
v 0.084853 -0.496585 0.084853
v 0.084853 0.703415 0.084853
v 0.066668 -0.496585 0.099776
v 0.066668 0.703415 0.099776
v 0.045922 -0.496585 0.110866
v 0.045922 0.703415 0.110866
v 0.023411 -0.496585 0.117694
v 0.023411 0.703415 0.117694
v 0.000000 -0.496585 0.120000
v 0.000000 0.703415 0.120000
v -0.023411 -0.496585 0.117694
v -0.023411 0.703415 0.117694
v -0.045922 -0.496585 0.110866
v -0.045922 0.703415 0.110866
v -0.066668 -0.496585 0.099776
v -0.066668 0.703415 0.099776
v -0.084853 -0.496585 0.084853
v -0.084853 0.703415 0.084853
v -0.099776 -0.496585 0.066668
v -0.099776 0.703415 0.066668
v -0.110866 -0.496585 0.045922
v -0.110866 0.703415 0.045922
v -0.117694 -0.496585 0.023411
v -0.117694 0.703415 0.023411
v -0.120000 -0.496585 0.000000
v -0.120000 0.703415 0.000000
v -0.117694 -0.496585 -0.023411
v -0.117694 0.703415 -0.023411
v -0.110866 -0.496585 -0.045922
v -0.110866 0.703415 -0.045922
v -0.099776 -0.496585 -0.066668
v -0.099776 0.703415 -0.066668
v -0.084853 -0.496585 -0.084853
v -0.084853 0.703415 -0.084853
v -0.066668 -0.496585 -0.099776
v -0.066668 0.703415 -0.099776
v -0.045922 -0.496585 -0.110866
v -0.045922 0.703415 -0.110866
v -0.023411 -0.496585 -0.117694
v -0.023411 0.703415 -0.117694
v -0.000000 -0.496585 -0.120000
v -0.000000 0.703415 -0.120000
v 0.023411 -0.496585 -0.117694
v 0.023411 0.703415 -0.117694
v 0.045922 -0.496585 -0.110866
v 0.045922 0.703415 -0.110866
v 0.066668 -0.496585 -0.099776
v 0.066668 0.703415 -0.099776
v 0.084853 -0.496585 -0.084853
v 0.084853 0.703415 -0.084853
v 0.099776 -0.496585 -0.066668
v 0.099776 0.703415 -0.066668
v 0.110866 -0.496585 -0.045922
v 0.110866 0.703415 -0.045922
v 0.117694 -0.496585 -0.023411
v 0.117694 0.703415 -0.023411
v 0.000000 0.087403 0.069212
v 0.000000 0.087403 0.669212
v -0.000000 0.687403 0.069212
v -0.000000 0.687403 0.669212
vn 0.9952 -0.0000 0.0980
vn 0.9569 -0.0000 0.2903
vn 0.8819 -0.0000 0.4714
vn 0.7730 -0.0000 0.6344
vn 0.6344 -0.0000 0.7730
vn 0.4714 -0.0000 0.8819
vn 0.2903 -0.0000 0.9569
vn 0.0980 -0.0000 0.9952
vn -0.0980 -0.0000 0.9952
vn -0.2903 -0.0000 0.9569
vn -0.4714 -0.0000 0.8819
vn -0.6344 -0.0000 0.7730
vn -0.7730 -0.0000 0.6344
vn -0.8819 -0.0000 0.4714
vn -0.9569 -0.0000 0.2903
vn -0.9952 -0.0000 0.0980
vn -0.9952 -0.0000 -0.0980
vn -0.9569 -0.0000 -0.2903
vn -0.8819 -0.0000 -0.4714
vn -0.7730 -0.0000 -0.6344
vn -0.6344 -0.0000 -0.7730
vn -0.4714 -0.0000 -0.8819
vn -0.2903 -0.0000 -0.9569
vn -0.0980 -0.0000 -0.9952
vn 0.0980 -0.0000 -0.9952
vn 0.2903 -0.0000 -0.9569
vn 0.4714 -0.0000 -0.8819
vn 0.6344 -0.0000 -0.7730
vn 0.7730 -0.0000 -0.6344
vn 0.8819 -0.0000 -0.4714
vn -0.0000 1.0000 -0.0000
vn 0.9569 -0.0000 -0.2903
vn 0.9952 -0.0000 -0.0980
vn -0.0000 -1.0000 -0.0000
vn -1.0000 -0.0000 -0.0000
vt 0.321597 0.007659
vt 0.007659 0.038431
vt 0.007659 0.007659
vt 0.321597 0.038431
vt 0.007659 0.069202
vt 0.321597 0.069202
vt 0.007659 0.099973
vt 0.321597 0.099973
vt 0.007659 0.130744
vt 0.321597 0.130744
vt 0.007659 0.161516
vt 0.321597 0.161516
vt 0.007659 0.192287
vt 0.321597 0.192287
vt 0.007659 0.223058
vt 0.321597 0.223058
vt 0.007659 0.253830
vt 0.321597 0.253830
vt 0.007659 0.284601
vt 0.321597 0.284601
vt 0.007659 0.315372
vt 0.321597 0.315372
vt 0.007659 0.346144
vt 0.321597 0.346143
vt 0.007659 0.376915
vt 0.321597 0.376915
vt 0.007659 0.407686
vt 0.321597 0.407686
vt 0.007659 0.438457
vt 0.321597 0.438457
vt 0.007659 0.469229
vt 0.321597 0.469229
vt 0.007659 0.500000
vt 0.321597 0.500000
vt 0.007659 0.530771
vt 0.321597 0.530771
vt 0.007659 0.561543
vt 0.321597 0.561543
vt 0.007659 0.592314
vt 0.321597 0.592314
vt 0.007659 0.623085
vt 0.321597 0.623085
vt 0.007659 0.653857
vt 0.321597 0.653857
vt 0.007659 0.684628
vt 0.321597 0.684628
vt 0.007659 0.715399
vt 0.321597 0.715399
vt 0.007659 0.746170
vt 0.321597 0.746170
vt 0.007659 0.776942
vt 0.321597 0.776942
vt 0.007659 0.807713
vt 0.321597 0.807713
vt 0.007659 0.838484
vt 0.321597 0.838484
vt 0.007659 0.869256
vt 0.321597 0.869256
vt 0.007659 0.900027
vt 0.321597 0.900027
vt 0.007659 0.930798
vt 0.803850 0.417622
vt 0.739411 0.630051
vt 0.526982 0.565611
vt 0.321597 0.930798
vt 0.007659 0.961570
vt 0.321597 0.961570
vt 0.007659 0.992341
vt 0.815626 0.118307
vt 0.710982 0.314082
vt 0.515206 0.209438
vt 0.336916 0.007659
vt 0.493885 0.792504
vt 0.336916 0.792504
vt 0.515206 0.537183
vt 0.509203 0.507002
vt 0.509203 0.476231
vt 0.515206 0.446051
vt 0.526982 0.417622
vt 0.544077 0.392037
vt 0.565836 0.370278
vt 0.591421 0.353183
vt 0.619850 0.341407
vt 0.650030 0.335404
vt 0.680802 0.335404
vt 0.710982 0.341407
vt 0.739411 0.353183
vt 0.764996 0.370278
vt 0.786755 0.392037
vt 0.815626 0.446051
vt 0.815626 0.537183
vt 0.821629 0.476231
vt 0.821629 0.507002
vt 0.803850 0.565611
vt 0.786755 0.591197
vt 0.764996 0.612955
vt 0.710982 0.641827
vt 0.619850 0.641827
vt 0.680802 0.647830
vt 0.650030 0.647830
vt 0.591421 0.630051
vt 0.565836 0.612955
vt 0.544077 0.591197
vt 0.321597 0.992341
vt 0.509203 0.179258
vt 0.509203 0.148487
vt 0.515206 0.118307
vt 0.526982 0.089878
vt 0.544077 0.064292
vt 0.565836 0.042534
vt 0.591421 0.025438
vt 0.619850 0.013662
vt 0.650030 0.007659
vt 0.680802 0.007659
vt 0.710982 0.013662
vt 0.739411 0.025438
vt 0.764996 0.042534
vt 0.786755 0.064292
vt 0.803850 0.089878
vt 0.821629 0.148487
vt 0.821629 0.179258
vt 0.815626 0.209438
vt 0.803850 0.237867
vt 0.786755 0.263452
vt 0.764996 0.285211
vt 0.739411 0.302307
vt 0.680802 0.320085
vt 0.650030 0.320085
vt 0.619850 0.314082
vt 0.591421 0.302307
vt 0.565836 0.285211
vt 0.544077 0.263452
vt 0.526982 0.237867
vt 0.493885 0.007659
s 0
usemtl マテリアル
f 2/1/1 3/2/1 1/3/1
f 4/4/2 5/5/2 3/2/2
f 6/6/3 7/7/3 5/5/3
f 8/8/4 9/9/4 7/7/4
f 10/10/5 11/11/5 9/9/5
f 12/12/6 13/13/6 11/11/6
f 14/14/7 15/15/7 13/13/7
f 16/16/8 17/17/8 15/15/8
f 18/18/9 19/19/9 17/17/9
f 20/20/10 21/21/10 19/19/10
f 22/22/11 23/23/11 21/21/11
f 24/24/12 25/25/12 23/23/12
f 26/26/13 27/27/13 25/25/13
f 28/28/14 29/29/14 27/27/14
f 30/30/15 31/31/15 29/29/15
f 32/32/16 33/33/16 31/31/16
f 34/34/17 35/35/17 33/33/17
f 36/36/18 37/37/18 35/35/18
f 38/38/19 39/39/19 37/37/19
f 40/40/20 41/41/20 39/39/20
f 42/42/21 43/43/21 41/41/21
f 44/44/22 45/45/22 43/43/22
f 46/46/23 47/47/23 45/45/23
f 48/48/24 49/49/24 47/47/24
f 50/50/25 51/51/25 49/49/25
f 52/52/26 53/53/26 51/51/26
f 54/54/27 55/55/27 53/53/27
f 56/56/28 57/57/28 55/55/28
f 58/58/29 59/59/29 57/57/29
f 60/60/30 61/61/30 59/59/30
f 38/62/31 22/63/31 6/64/31
f 62/65/32 63/66/32 61/61/32
f 64/67/33 1/68/33 63/66/33
f 31/69/34 47/70/34 63/71/34
f 66/72/35 67/73/35 65/74/35
f 2/1/1 4/4/1 3/2/1
f 4/4/2 6/6/2 5/5/2
f 6/6/3 8/8/3 7/7/3
f 8/8/4 10/10/4 9/9/4
f 10/10/5 12/12/5 11/11/5
f 12/12/6 14/14/6 13/13/6
f 14/14/7 16/16/7 15/15/7
f 16/16/8 18/18/8 17/17/8
f 18/18/9 20/20/9 19/19/9
f 20/20/10 22/22/10 21/21/10
f 22/22/11 24/24/11 23/23/11
f 24/24/12 26/26/12 25/25/12
f 26/26/13 28/28/13 27/27/13
f 28/28/14 30/30/14 29/29/14
f 30/30/15 32/32/15 31/31/15
f 32/32/16 34/34/16 33/33/16
f 34/34/17 36/36/17 35/35/17
f 36/36/18 38/38/18 37/37/18
f 38/38/19 40/40/19 39/39/19
f 40/40/20 42/42/20 41/41/20
f 42/42/21 44/44/21 43/43/21
f 44/44/22 46/46/22 45/45/22
f 46/46/23 48/48/23 47/47/23
f 48/48/24 50/50/24 49/49/24
f 50/50/25 52/52/25 51/51/25
f 52/52/26 54/54/26 53/53/26
f 54/54/27 56/56/27 55/55/27
f 56/56/28 58/58/28 57/57/28
f 58/58/29 60/60/29 59/59/29
f 60/60/30 62/65/30 61/61/30
f 6/64/31 4/75/31 2/76/31
f 2/76/31 64/77/31 6/64/31
f 64/77/31 62/78/31 6/64/31
f 62/78/31 60/79/31 58/80/31
f 58/80/31 56/81/31 54/82/31
f 54/82/31 52/83/31 50/84/31
f 50/84/31 48/85/31 54/82/31
f 48/85/31 46/86/31 54/82/31
f 46/86/31 44/87/31 42/88/31
f 42/88/31 40/89/31 38/62/31
f 38/62/31 36/90/31 30/91/31
f 36/90/31 34/92/31 30/91/31
f 34/92/31 32/93/31 30/91/31
f 30/91/31 28/94/31 26/95/31
f 26/95/31 24/96/31 22/63/31
f 22/63/31 20/97/31 14/98/31
f 20/97/31 18/99/31 14/98/31
f 18/99/31 16/100/31 14/98/31
f 14/98/31 12/101/31 10/102/31
f 10/102/31 8/103/31 6/64/31
f 62/78/31 58/80/31 6/64/31
f 58/80/31 54/82/31 6/64/31
f 46/86/31 42/88/31 54/82/31
f 42/88/31 38/62/31 54/82/31
f 30/91/31 26/95/31 38/62/31
f 26/95/31 22/63/31 38/62/31
f 14/98/31 10/102/31 22/63/31
f 10/102/31 6/64/31 22/63/31
f 6/64/31 54/82/31 38/62/31
f 62/65/32 64/67/32 63/66/32
f 64/67/33 2/104/33 1/68/33
f 63/71/34 1/105/34 3/106/34
f 3/106/34 5/107/34 7/108/34
f 7/108/34 9/109/34 11/110/34
f 11/110/34 13/111/34 15/112/34
f 15/112/34 17/113/34 19/114/34
f 19/114/34 21/115/34 23/116/34
f 23/116/34 25/117/34 27/118/34
f 27/118/34 29/119/34 31/69/34
f 31/69/34 33/120/34 35/121/34
f 35/121/34 37/122/34 39/123/34
f 39/123/34 41/124/34 43/125/34
f 43/125/34 45/126/34 47/70/34
f 47/70/34 49/127/34 51/128/34
f 51/128/34 53/129/34 55/130/34
f 55/130/34 57/131/34 59/132/34
f 59/132/34 61/133/34 63/71/34
f 63/71/34 3/106/34 15/112/34
f 3/106/34 7/108/34 15/112/34
f 7/108/34 11/110/34 15/112/34
f 15/112/34 19/114/34 31/69/34
f 19/114/34 23/116/34 31/69/34
f 23/116/34 27/118/34 31/69/34
f 31/69/34 35/121/34 47/70/34
f 35/121/34 39/123/34 47/70/34
f 39/123/34 43/125/34 47/70/34
f 47/70/34 51/128/34 63/71/34
f 51/128/34 55/130/34 63/71/34
f 55/130/34 59/132/34 63/71/34
f 63/71/34 15/112/34 31/69/34
f 66/72/35 68/134/35 67/73/35
